<svg id="Group_44" data-name="Group 44" xmlns="http://www.w3.org/2000/svg" xmlns:xlink="http://www.w3.org/1999/xlink" width="1920" height="689" viewBox="0 0 1920 689">
  <defs>
    <clipPath id="clip-path">
      <rect id="Rectangle_9" data-name="Rectangle 9" width="1920" height="689" fill="#4a127d"/>
    </clipPath>
    <clipPath id="clip-path-2">
      <rect id="Rectangle_3" data-name="Rectangle 3" width="284" height="269" transform="translate(1636 538)" fill="#f7941d" stroke="#707070" stroke-width="1"/>
    </clipPath>
  </defs>
  <rect id="Rectangle_1" data-name="Rectangle 1" width="1920" height="689" fill="#4a127d"/>
  <g id="Mask_Group_3" data-name="Mask Group 3" clip-path="url(#clip-path)">
    <g id="Group_43" data-name="Group 43">
      <g id="Group_1" data-name="Group 1" transform="matrix(0.899, -0.438, 0.438, 0.899, 173.781, 610.988)">
        <g id="Path_1" data-name="Path 1" transform="translate(1512.755 -48.209) rotate(45)" fill="none">
          <path d="M100.784,34.647l105.388,181.2H0Z" stroke="none"/>
          <path d="M 100.8811874389648 44.75868225097656 L 8.50250244140625 210.8424835205078 L 197.4795532226562 210.8424835205078 L 100.8811874389648 44.75868225097656 M 100.7841262817383 34.64689636230469 L 206.171875 215.8424835205078 L 0 215.8424835205078 L 100.7841262817383 34.64689636230469 Z" stroke="none" fill="#fff"/>
        </g>
        <g id="Path_2" data-name="Path 2" transform="translate(1491.755 -130.209) rotate(45)" fill="none">
          <path d="M100.784,34.647l105.388,181.2H0Z" stroke="none"/>
          <path d="M 100.8811874389648 44.75868225097656 L 8.50250244140625 210.8424835205078 L 197.4795532226562 210.8424835205078 L 100.8811874389648 44.75868225097656 M 100.7841262817383 34.64689636230469 L 206.171875 215.8424835205078 L 0 215.8424835205078 L 100.7841262817383 34.64689636230469 Z" stroke="none" fill="#fff"/>
        </g>
      </g>
      <g id="Group_42" data-name="Group 42" transform="translate(2 -119)">
        <circle id="Ellipse_1" data-name="Ellipse 1" cx="12.89" cy="12.89" r="12.89" transform="translate(282.306 647.383)" fill="#fff"/>
        <circle id="Ellipse_1-2" data-name="Ellipse 1" cx="12.89" cy="12.89" r="12.89" transform="translate(321.835 647.383)" fill="#fff"/>
        <circle id="Ellipse_1-3" data-name="Ellipse 1" cx="12.89" cy="12.89" r="12.89" transform="translate(361.364 647.383)" fill="#fff"/>
        <circle id="Ellipse_1-4" data-name="Ellipse 1" cx="12.89" cy="12.89" r="12.89" transform="translate(400.892 647.383)" fill="#fff"/>
        <circle id="Ellipse_1-5" data-name="Ellipse 1" cx="12.89" cy="12.89" r="12.89" transform="translate(282.306 685.622)" fill="#fff"/>
        <circle id="Ellipse_1-6" data-name="Ellipse 1" cx="12.89" cy="12.89" r="12.89" transform="translate(321.835 685.622)" fill="#fff"/>
        <circle id="Ellipse_1-7" data-name="Ellipse 1" cx="12.89" cy="12.89" r="12.89" transform="translate(361.364 685.622)" fill="#fff"/>
        <circle id="Ellipse_1-8" data-name="Ellipse 1" cx="12.89" cy="12.89" r="12.89" transform="translate(400.892 685.622)" fill="#fff"/>
        <circle id="Ellipse_1-9" data-name="Ellipse 1" cx="12.89" cy="12.89" r="12.89" transform="translate(282.306 723.862)" fill="#fff"/>
        <circle id="Ellipse_1-10" data-name="Ellipse 1" cx="12.89" cy="12.89" r="12.89" transform="translate(321.835 723.862)" fill="#fff"/>
        <circle id="Ellipse_1-11" data-name="Ellipse 1" cx="12.89" cy="12.89" r="12.89" transform="translate(361.364 723.862)" fill="#fff"/>
        <circle id="Ellipse_1-12" data-name="Ellipse 1" cx="12.89" cy="12.89" r="12.89" transform="translate(400.892 723.862)" fill="#fff"/>
        <circle id="Ellipse_2" data-name="Ellipse 2" cx="12.89" cy="12.89" r="12.89" transform="translate(282.306 770.265)" fill="#fff"/>
        <circle id="Ellipse_3" data-name="Ellipse 3" cx="12.89" cy="12.89" r="12.89" transform="translate(321.835 770.265)" fill="#fff"/>
        <circle id="Ellipse_4" data-name="Ellipse 4" cx="12.89" cy="12.89" r="12.89" transform="translate(361.364 770.265)" fill="#fff"/>
        <circle id="Ellipse_5" data-name="Ellipse 5" cx="12.89" cy="12.89" r="12.89" transform="translate(400.892 770.265)" fill="#fff"/>
        <circle id="Ellipse_6" data-name="Ellipse 6" cx="12.89" cy="12.89" r="12.89" transform="translate(282.306 808.505)" fill="#f7941d"/>
        <circle id="Ellipse_7" data-name="Ellipse 7" cx="12.89" cy="12.89" r="12.89" transform="translate(321.835 808.505)" fill="#f7941d"/>
        <circle id="Ellipse_8" data-name="Ellipse 8" cx="12.89" cy="12.89" r="12.89" transform="translate(361.364 808.505)" fill="#f7941d"/>
        <circle id="Ellipse_9" data-name="Ellipse 9" cx="12.89" cy="12.89" r="12.89" transform="translate(400.892 808.505)" fill="#f7941d"/>
        <circle id="Ellipse_10" data-name="Ellipse 10" cx="12.89" cy="12.89" r="12.89" transform="translate(282.306 846.744)" fill="#f7941d"/>
        <circle id="Ellipse_11" data-name="Ellipse 11" cx="12.89" cy="12.89" r="12.89" transform="translate(321.835 846.744)" fill="#f7941d"/>
        <circle id="Ellipse_12" data-name="Ellipse 12" cx="12.89" cy="12.89" r="12.89" transform="translate(361.364 846.744)" fill="#f7941d"/>
        <circle id="Ellipse_13" data-name="Ellipse 13" cx="12.89" cy="12.89" r="12.89" transform="translate(400.892 846.744)" fill="#f7941d"/>
      </g>
      <g id="Ellipse_14" data-name="Ellipse 14" transform="translate(771 565)" fill="none" stroke="#ffc500" stroke-width="5">
        <circle cx="94.5" cy="94.5" r="94.5" stroke="none"/>
        <circle cx="94.5" cy="94.5" r="92" fill="none"/>
      </g>
      <g id="Mask_Group_1" data-name="Mask Group 1" transform="translate(-281 -117)" clip-path="url(#clip-path-2)">
        <g id="Group_2" data-name="Group 2" transform="translate(-33 -50)">
          <rect id="Rectangle_2" data-name="Rectangle 2" width="14" height="443" transform="translate(1950.674 587.926) rotate(45)" fill="#f7941d"/>
          <rect id="Rectangle_2-2" data-name="Rectangle 2" width="14" height="443" transform="translate(1988.674 587.926) rotate(45)" fill="#f7941d"/>
          <rect id="Rectangle_2-3" data-name="Rectangle 2" width="14" height="443" transform="translate(2026.674 587.926) rotate(45)" fill="#f7941d"/>
          <rect id="Rectangle_2-4" data-name="Rectangle 2" width="14" height="443" transform="translate(2064.674 587.926) rotate(45)" fill="#f7941d"/>
          <rect id="Rectangle_2-5" data-name="Rectangle 2" width="14" height="443" transform="translate(2102.674 587.926) rotate(45)" fill="#f7941d"/>
          <rect id="Rectangle_2-6" data-name="Rectangle 2" width="14" height="443" transform="translate(2140.674 587.926) rotate(45)" fill="#f7941d"/>
        </g>
      </g>
    </g>
  </g>
</svg>
