<svg xmlns="http://www.w3.org/2000/svg" xmlns:xlink="http://www.w3.org/1999/xlink" width="1413.656" height="1005.226" viewBox="0 0 1413.656 1005.226">
  <defs>
    <style>
      .cls-1, .cls-3, .cls-8 {
        fill: #fff;
      }

      .cls-1 {
        stroke: #707070;
      }

      .cls-2, .cls-5, .cls-9 {
        fill: none;
      }

      .cls-4 {
        fill: #f7941d;
      }

      .cls-5 {
        stroke: #ffc500;
        stroke-width: 5px;
      }

      .cls-6 {
        clip-path: url(#clip-path);
      }

      .cls-7, .cls-8 {
        stroke: none;
      }
    </style>
    <clipPath id="clip-path">
      <rect id="Rectangle_3" data-name="Rectangle 3" class="cls-1" width="284" height="269" transform="translate(1636 538)"/>
    </clipPath>
  </defs>
  <g id="Group_39" data-name="Group 39" transform="translate(-282.306 127.226)">
    <g id="Group_1" data-name="Group 1" transform="matrix(0.899, -0.438, 0.438, 0.899, 173.781, 610.988)">
      <g id="Path_1" data-name="Path 1" class="cls-2" transform="translate(1512.755 -48.209) rotate(45)">
        <path class="cls-7" d="M100.784,34.647l105.388,181.2H0Z"/>
        <path class="cls-8" d="M 100.8811874389648 44.75868225097656 L 8.50250244140625 210.8424835205078 L 197.4795532226562 210.8424835205078 L 100.8811874389648 44.75868225097656 M 100.7841262817383 34.64689636230469 L 206.171875 215.8424835205078 L 0 215.8424835205078 L 100.7841262817383 34.64689636230469 Z"/>
      </g>
      <g id="Path_2" data-name="Path 2" class="cls-2" transform="translate(1491.755 -130.209) rotate(45)">
        <path class="cls-7" d="M100.784,34.647l105.388,181.2H0Z"/>
        <path class="cls-8" d="M 100.8811874389648 44.75868225097656 L 8.50250244140625 210.8424835205078 L 197.4795532226562 210.8424835205078 L 100.8811874389648 44.75868225097656 M 100.7841262817383 34.64689636230469 L 206.171875 215.8424835205078 L 0 215.8424835205078 L 100.7841262817383 34.64689636230469 Z"/>
      </g>
    </g>
    <g id="Group_38" data-name="Group 38">
      <circle id="Ellipse_1" data-name="Ellipse 1" class="cls-3" cx="12.89" cy="12.89" r="12.89" transform="translate(282.306 647.383)"/>
      <circle id="Ellipse_1-2" data-name="Ellipse 1" class="cls-3" cx="12.89" cy="12.89" r="12.89" transform="translate(321.835 647.383)"/>
      <circle id="Ellipse_1-3" data-name="Ellipse 1" class="cls-3" cx="12.89" cy="12.89" r="12.89" transform="translate(361.364 647.383)"/>
      <circle id="Ellipse_1-4" data-name="Ellipse 1" class="cls-3" cx="12.89" cy="12.89" r="12.89" transform="translate(400.892 647.383)"/>
      <circle id="Ellipse_1-5" data-name="Ellipse 1" class="cls-3" cx="12.89" cy="12.89" r="12.89" transform="translate(282.306 685.622)"/>
      <circle id="Ellipse_1-6" data-name="Ellipse 1" class="cls-3" cx="12.89" cy="12.89" r="12.89" transform="translate(321.835 685.622)"/>
      <circle id="Ellipse_1-7" data-name="Ellipse 1" class="cls-3" cx="12.89" cy="12.89" r="12.89" transform="translate(361.364 685.622)"/>
      <circle id="Ellipse_1-8" data-name="Ellipse 1" class="cls-3" cx="12.89" cy="12.89" r="12.89" transform="translate(400.892 685.622)"/>
      <circle id="Ellipse_1-9" data-name="Ellipse 1" class="cls-3" cx="12.89" cy="12.89" r="12.89" transform="translate(282.306 723.862)"/>
      <circle id="Ellipse_1-10" data-name="Ellipse 1" class="cls-3" cx="12.89" cy="12.89" r="12.89" transform="translate(321.835 723.862)"/>
      <circle id="Ellipse_1-11" data-name="Ellipse 1" class="cls-3" cx="12.89" cy="12.89" r="12.89" transform="translate(361.364 723.862)"/>
      <circle id="Ellipse_1-12" data-name="Ellipse 1" class="cls-3" cx="12.89" cy="12.89" r="12.89" transform="translate(400.892 723.862)"/>
      <circle id="Ellipse_2" data-name="Ellipse 2" class="cls-3" cx="12.89" cy="12.89" r="12.89" transform="translate(282.306 770.265)"/>
      <circle id="Ellipse_3" data-name="Ellipse 3" class="cls-3" cx="12.89" cy="12.89" r="12.89" transform="translate(321.835 770.265)"/>
      <circle id="Ellipse_4" data-name="Ellipse 4" class="cls-3" cx="12.89" cy="12.89" r="12.89" transform="translate(361.364 770.265)"/>
      <circle id="Ellipse_5" data-name="Ellipse 5" class="cls-3" cx="12.89" cy="12.89" r="12.89" transform="translate(400.892 770.265)"/>
      <circle id="Ellipse_6" data-name="Ellipse 6" class="cls-4" cx="12.89" cy="12.89" r="12.89" transform="translate(282.306 808.505)"/>
      <circle id="Ellipse_7" data-name="Ellipse 7" class="cls-4" cx="12.89" cy="12.89" r="12.89" transform="translate(321.835 808.505)"/>
      <circle id="Ellipse_8" data-name="Ellipse 8" class="cls-4" cx="12.89" cy="12.89" r="12.89" transform="translate(361.364 808.505)"/>
      <circle id="Ellipse_9" data-name="Ellipse 9" class="cls-4" cx="12.89" cy="12.89" r="12.89" transform="translate(400.892 808.505)"/>
      <circle id="Ellipse_10" data-name="Ellipse 10" class="cls-4" cx="12.89" cy="12.89" r="12.89" transform="translate(282.306 846.744)"/>
      <circle id="Ellipse_11" data-name="Ellipse 11" class="cls-4" cx="12.89" cy="12.89" r="12.89" transform="translate(321.835 846.744)"/>
      <circle id="Ellipse_12" data-name="Ellipse 12" class="cls-4" cx="12.89" cy="12.89" r="12.89" transform="translate(361.364 846.744)"/>
      <circle id="Ellipse_13" data-name="Ellipse 13" class="cls-4" cx="12.89" cy="12.89" r="12.89" transform="translate(400.892 846.744)"/>
    </g>
    <g id="Ellipse_14" data-name="Ellipse 14" class="cls-5" transform="translate(771 689)">
      <circle class="cls-7" cx="94.5" cy="94.5" r="94.5"/>
      <circle class="cls-9" cx="94.5" cy="94.5" r="92"/>
    </g>
    <g id="Mask_Group_1" data-name="Mask Group 1" class="cls-6" transform="translate(-281)">
      <g id="Group_2" data-name="Group 2" transform="translate(-33 -50)">
        <rect id="Rectangle_2" data-name="Rectangle 2" class="cls-4" width="14" height="443" transform="translate(1950.674 587.926) rotate(45)"/>
        <rect id="Rectangle_2-2" data-name="Rectangle 2" class="cls-4" width="14" height="443" transform="translate(1988.674 587.926) rotate(45)"/>
        <rect id="Rectangle_2-3" data-name="Rectangle 2" class="cls-4" width="14" height="443" transform="translate(2026.674 587.926) rotate(45)"/>
        <rect id="Rectangle_2-4" data-name="Rectangle 2" class="cls-4" width="14" height="443" transform="translate(2064.674 587.926) rotate(45)"/>
        <rect id="Rectangle_2-5" data-name="Rectangle 2" class="cls-4" width="14" height="443" transform="translate(2102.674 587.926) rotate(45)"/>
        <rect id="Rectangle_2-6" data-name="Rectangle 2" class="cls-4" width="14" height="443" transform="translate(2140.674 587.926) rotate(45)"/>
      </g>
    </g>
  </g>
</svg>
